<svg width="100" height="100" viewBox="0 0 100 100" fill="none" xmlns="http://www.w3.org/2000/svg">
<path d="M50.0003 8.33334C73.012 8.33352 91.6663 26.9886 91.6663 50.0003C91.6661 73.0119 73.0119 91.6662 50.0003 91.6664C26.9885 91.6664 8.33349 73.0121 8.33331 50.0003C8.33331 26.9885 26.9884 8.33334 50.0003 8.33334ZM74.1214 38.4085C71.6748 35.962 67.713 35.9451 65.2464 38.3714L44.0648 59.2074L32.6673 47.7894C32.3745 47.4961 31.8989 47.4954 31.6058 47.7884L28.2464 51.1468C27.9539 51.4395 27.9542 51.9144 28.2464 52.2074L43.515 67.5023C43.8077 67.7956 44.2834 67.7962 44.5765 67.5033L46.5189 65.5609L74.1214 38.4085Z" fill="#57CF62"/>
</svg>

